<svg width="20" height="20" viewBox="0 0 20 20" fill="none" xmlns="http://www.w3.org/2000/svg">
<path d="M9.9999 0.400024C7.45382 0.400024 5.01203 1.41145 3.21168 3.2118C1.41133 5.01215 0.399902 7.45395 0.399902 10C0.399968 11.2607 0.648344 12.509 1.13085 13.6737C1.61336 14.8384 2.32054 15.8967 3.21203 16.7881C4.10352 17.6795 5.16185 18.3866 6.3266 18.869C7.49135 19.3513 8.73971 19.5996 10.0004 19.5995C11.2611 19.5995 12.5094 19.3511 13.6741 18.8686C14.8388 18.3861 15.8971 17.6789 16.7885 16.7874C17.6799 15.8959 18.387 14.8376 18.8693 13.6728C19.3517 12.5081 19.6 11.2597 19.5999 9.99902C19.5999 4.69802 15.3009 0.400024 9.9999 0.400024ZM9.8489 15.599H9.7979C9.0159 15.576 8.4639 14.999 8.4869 14.228C8.5089 13.47 9.0739 12.919 9.8299 12.919L9.8759 12.921C10.6799 12.944 11.2259 13.515 11.2029 14.308C11.1799 15.068 10.6249 15.599 9.8489 15.599V15.599ZM13.1399 9.06802C12.9559 9.32802 12.5519 9.65402 12.0419 10.051L11.4799 10.438C11.1719 10.678 10.9859 10.905 10.9169 11.126C10.8609 11.3 10.8349 11.347 10.8299 11.702V11.792H8.6849L8.6909 11.61C8.7179 10.866 8.7359 10.426 9.0449 10.063C9.5299 9.49502 10.5999 8.80502 10.6449 8.77602C10.7917 8.66878 10.9198 8.53802 11.0239 8.38902C11.2489 8.07802 11.3479 7.83402 11.3479 7.59602C11.3479 7.26202 11.2499 6.95302 11.0549 6.68002C10.8669 6.41402 10.5099 6.28202 9.9939 6.28202C9.4819 6.28202 9.1309 6.44402 8.9219 6.77802C8.7059 7.11902 8.5969 7.47802 8.5969 7.84502V7.93702H6.3859L6.3899 7.84102C6.4469 6.48802 6.9309 5.51302 7.8249 4.94402C8.3879 4.58302 9.0889 4.40002 9.9059 4.40002C10.9739 4.40002 11.8779 4.66002 12.5879 5.17202C13.3089 5.69102 13.6739 6.46902 13.6739 7.48302C13.6729 8.05002 13.4939 8.58302 13.1399 9.06802V9.06802Z" fill="#c9510c"/>
</svg>
