<svg xmlns="http://www.w3.org/2000/svg" version="1.1" xmlns:xlink="http://www.w3.org/1999/xlink" xmlns:svgjs="http://svgjs.com/svgjs" width="500" height="500" preserveAspectRatio="none" viewBox="0 0 500 500"><g mask="url(&quot;#SvgjsMask1046&quot;)" fill="none"><path d="M-30.13 350.9L-30.13 350.9" stroke="rgba(37, 77, 47, 0.18)" stroke-width="1.5"></path><path d="M-30.13 350.9L-26.11 407.37" stroke="rgba(37, 77, 47, 0.18)" stroke-width="1.5"></path><path d="M-30.13 350.9L27.28 329.61" stroke="rgba(37, 77, 47, 0.18)" stroke-width="1.5"></path><path d="M-30.13 350.9L24.85 401.48" stroke="rgba(37, 77, 47, 0.18)" stroke-width="1.5"></path><path d="M-30.13 350.9L-28.48 457.68" stroke="rgba(37, 77, 47, 0.18)" stroke-width="1.5"></path><path d="M-30.13 350.9L80.84 332.4" stroke="rgba(37, 77, 47, 0.18)" stroke-width="1.5"></path><path d="M-30.13 350.9L80.03 394.63" stroke="rgba(37, 77, 47, 0.18)" stroke-width="1.5"></path><path d="M-26.11 407.37L-26.11 407.37" stroke="rgba(37, 77, 47, 0.18)" stroke-width="1.5"></path><path d="M-26.11 407.37L-28.48 457.68" stroke="rgba(37, 77, 47, 0.18)" stroke-width="1.5"></path><path d="M-26.11 407.37L24.85 401.48" stroke="rgba(37, 77, 47, 0.18)" stroke-width="1.5"></path><path d="M-26.11 407.37L18.23 478.35" stroke="rgba(37, 77, 47, 0.18)" stroke-width="1.5"></path><path d="M-26.11 407.37L27.28 329.61" stroke="rgba(37, 77, 47, 0.18)" stroke-width="1.5"></path><path d="M-26.11 407.37L80.03 394.63" stroke="rgba(37, 77, 47, 0.18)" stroke-width="1.5"></path><path d="M-28.48 457.68L-28.48 457.68" stroke="rgba(37, 77, 47, 0.18)" stroke-width="1.5"></path><path d="M-28.48 457.68L18.23 478.35" stroke="rgba(37, 77, 47, 0.18)" stroke-width="1.5"></path><path d="M-28.48 457.68L24.85 401.48" stroke="rgba(37, 77, 47, 0.18)" stroke-width="1.5"></path><path d="M-28.48 457.68L-33.98 544.19" stroke="rgba(37, 77, 47, 0.18)" stroke-width="1.5"></path><path d="M-33.98 544.19L-33.98 544.19" stroke="rgba(37, 77, 47, 0.18)" stroke-width="1.5"></path><path d="M-33.98 544.19L42.88 544.09" stroke="rgba(37, 77, 47, 0.18)" stroke-width="1.5"></path><path d="M-33.98 544.19L18.23 478.35" stroke="rgba(37, 77, 47, 0.18)" stroke-width="1.5"></path><path d="M27.28 329.61L27.28 329.61" stroke="rgba(37, 77, 47, 0.18)" stroke-width="1.5"></path><path d="M27.28 329.61L80.84 332.4" stroke="rgba(37, 77, 47, 0.18)" stroke-width="1.5"></path><path d="M27.28 329.61L24.85 401.48" stroke="rgba(37, 77, 47, 0.18)" stroke-width="1.5"></path><path d="M27.28 329.61L80.03 394.63" stroke="rgba(37, 77, 47, 0.18)" stroke-width="1.5"></path><path d="M24.85 401.48L24.85 401.48" stroke="rgba(37, 77, 47, 0.18)" stroke-width="1.5"></path><path d="M24.85 401.48L80.03 394.63" stroke="rgba(37, 77, 47, 0.18)" stroke-width="1.5"></path><path d="M18.23 478.35L18.23 478.35" stroke="rgba(37, 77, 47, 0.18)" stroke-width="1.5"></path><path d="M18.23 478.35L42.88 544.09" stroke="rgba(37, 77, 47, 0.18)" stroke-width="1.5"></path><path d="M18.23 478.35L24.85 401.48" stroke="rgba(37, 77, 47, 0.18)" stroke-width="1.5"></path><path d="M42.88 544.09L42.88 544.09" stroke="rgba(37, 77, 47, 0.18)" stroke-width="1.5"></path><path d="M42.88 544.09L84.48 539.92" stroke="rgba(37, 77, 47, 0.18)" stroke-width="1.5"></path><path d="M42.88 544.09L-28.48 457.68" stroke="rgba(37, 77, 47, 0.18)" stroke-width="1.5"></path><path d="M42.88 544.09L166.9 538.06" stroke="rgba(37, 77, 47, 0.18)" stroke-width="1.5"></path><path d="M42.88 544.09L165.35 476.4" stroke="rgba(37, 77, 47, 0.18)" stroke-width="1.5"></path><path d="M80.84 332.4L80.84 332.4" stroke="rgba(37, 77, 47, 0.18)" stroke-width="1.5"></path><path d="M80.84 332.4L80.03 394.63" stroke="rgba(37, 77, 47, 0.18)" stroke-width="1.5"></path><path d="M80.84 332.4L141.52 295.67" stroke="rgba(37, 77, 47, 0.18)" stroke-width="1.5"></path><path d="M80.84 332.4L155.58 335.38" stroke="rgba(37, 77, 47, 0.18)" stroke-width="1.5"></path><path d="M80.84 332.4L24.85 401.48" stroke="rgba(37, 77, 47, 0.18)" stroke-width="1.5"></path><path d="M80.03 394.63L80.03 394.63" stroke="rgba(37, 77, 47, 0.18)" stroke-width="1.5"></path><path d="M80.03 394.63L158.07 416.92" stroke="rgba(37, 77, 47, 0.18)" stroke-width="1.5"></path><path d="M84.48 539.92L84.48 539.92" stroke="rgba(37, 77, 47, 0.18)" stroke-width="1.5"></path><path d="M84.48 539.92L166.9 538.06" stroke="rgba(37, 77, 47, 0.18)" stroke-width="1.5"></path><path d="M84.48 539.92L18.23 478.35" stroke="rgba(37, 77, 47, 0.18)" stroke-width="1.5"></path><path d="M84.48 539.92L165.35 476.4" stroke="rgba(37, 77, 47, 0.18)" stroke-width="1.5"></path><path d="M141.52 295.67L141.52 295.67" stroke="rgba(37, 77, 47, 0.18)" stroke-width="1.5"></path><path d="M141.52 295.67L155.58 335.38" stroke="rgba(37, 77, 47, 0.18)" stroke-width="1.5"></path><path d="M141.52 295.67L205.61 280.83" stroke="rgba(37, 77, 47, 0.18)" stroke-width="1.5"></path><path d="M155.58 335.38L155.58 335.38" stroke="rgba(37, 77, 47, 0.18)" stroke-width="1.5"></path><path d="M155.58 335.38L223.52 345.4" stroke="rgba(37, 77, 47, 0.18)" stroke-width="1.5"></path><path d="M155.58 335.38L205.61 280.83" stroke="rgba(37, 77, 47, 0.18)" stroke-width="1.5"></path><path d="M155.58 335.38L158.07 416.92" stroke="rgba(37, 77, 47, 0.18)" stroke-width="1.5"></path><path d="M155.58 335.38L80.03 394.63" stroke="rgba(37, 77, 47, 0.18)" stroke-width="1.5"></path><path d="M158.07 416.92L158.07 416.92" stroke="rgba(37, 77, 47, 0.18)" stroke-width="1.5"></path><path d="M158.07 416.92L165.35 476.4" stroke="rgba(37, 77, 47, 0.18)" stroke-width="1.5"></path><path d="M158.07 416.92L203.72 463.95" stroke="rgba(37, 77, 47, 0.18)" stroke-width="1.5"></path><path d="M165.35 476.4L165.35 476.4" stroke="rgba(37, 77, 47, 0.18)" stroke-width="1.5"></path><path d="M165.35 476.4L203.72 463.95" stroke="rgba(37, 77, 47, 0.18)" stroke-width="1.5"></path><path d="M165.35 476.4L166.9 538.06" stroke="rgba(37, 77, 47, 0.18)" stroke-width="1.5"></path><path d="M165.35 476.4L224.81 534.32" stroke="rgba(37, 77, 47, 0.18)" stroke-width="1.5"></path><path d="M165.35 476.4L228 408.76" stroke="rgba(37, 77, 47, 0.18)" stroke-width="1.5"></path><path d="M166.9 538.06L166.9 538.06" stroke="rgba(37, 77, 47, 0.18)" stroke-width="1.5"></path><path d="M166.9 538.06L224.81 534.32" stroke="rgba(37, 77, 47, 0.18)" stroke-width="1.5"></path><path d="M166.9 538.06L203.72 463.95" stroke="rgba(37, 77, 47, 0.18)" stroke-width="1.5"></path><path d="M205.61 280.83L205.61 280.83" stroke="rgba(37, 77, 47, 0.18)" stroke-width="1.5"></path><path d="M205.61 280.83L223.52 345.4" stroke="rgba(37, 77, 47, 0.18)" stroke-width="1.5"></path><path d="M205.61 280.83L276.46 274.48" stroke="rgba(37, 77, 47, 0.18)" stroke-width="1.5"></path><path d="M223.52 345.4L223.52 345.4" stroke="rgba(37, 77, 47, 0.18)" stroke-width="1.5"></path><path d="M223.52 345.4L284.93 356.61" stroke="rgba(37, 77, 47, 0.18)" stroke-width="1.5"></path><path d="M223.52 345.4L228 408.76" stroke="rgba(37, 77, 47, 0.18)" stroke-width="1.5"></path><path d="M228 408.76L228 408.76" stroke="rgba(37, 77, 47, 0.18)" stroke-width="1.5"></path><path d="M228 408.76L283.92 417.85" stroke="rgba(37, 77, 47, 0.18)" stroke-width="1.5"></path><path d="M203.72 463.95L203.72 463.95" stroke="rgba(37, 77, 47, 0.18)" stroke-width="1.5"></path><path d="M203.72 463.95L228 408.76" stroke="rgba(37, 77, 47, 0.18)" stroke-width="1.5"></path><path d="M203.72 463.95L224.81 534.32" stroke="rgba(37, 77, 47, 0.18)" stroke-width="1.5"></path><path d="M224.81 534.32L224.81 534.32" stroke="rgba(37, 77, 47, 0.18)" stroke-width="1.5"></path><path d="M224.81 534.32L296.2 516.92" stroke="rgba(37, 77, 47, 0.18)" stroke-width="1.5"></path><path d="M224.81 534.32L276.52 474.13" stroke="rgba(37, 77, 47, 0.18)" stroke-width="1.5"></path><path d="M285.68 101.4L285.68 101.4" stroke="rgba(37, 77, 47, 0.18)" stroke-width="1.5"></path><path d="M285.68 101.4L332.07 105.29" stroke="rgba(37, 77, 47, 0.18)" stroke-width="1.5"></path><path d="M285.68 101.4L265.87 149.39" stroke="rgba(37, 77, 47, 0.18)" stroke-width="1.5"></path><path d="M285.68 101.4L334.19 162.37" stroke="rgba(37, 77, 47, 0.18)" stroke-width="1.5"></path><path d="M265.87 149.39L265.87 149.39" stroke="rgba(37, 77, 47, 0.18)" stroke-width="1.5"></path><path d="M268.22 233.69L268.22 233.69" stroke="rgba(37, 77, 47, 0.18)" stroke-width="1.5"></path><path d="M268.22 233.69L276.46 274.48" stroke="rgba(37, 77, 47, 0.18)" stroke-width="1.5"></path><path d="M268.22 233.69L337.59 211.92" stroke="rgba(37, 77, 47, 0.18)" stroke-width="1.5"></path><path d="M276.46 274.48L276.46 274.48" stroke="rgba(37, 77, 47, 0.18)" stroke-width="1.5"></path><path d="M276.46 274.48L344.75 276.34" stroke="rgba(37, 77, 47, 0.18)" stroke-width="1.5"></path><path d="M276.46 274.48L284.93 356.61" stroke="rgba(37, 77, 47, 0.18)" stroke-width="1.5"></path><path d="M276.46 274.48L337.59 211.92" stroke="rgba(37, 77, 47, 0.18)" stroke-width="1.5"></path><path d="M284.93 356.61L284.93 356.61" stroke="rgba(37, 77, 47, 0.18)" stroke-width="1.5"></path><path d="M284.93 356.61L283.92 417.85" stroke="rgba(37, 77, 47, 0.18)" stroke-width="1.5"></path><path d="M283.92 417.85L283.92 417.85" stroke="rgba(37, 77, 47, 0.18)" stroke-width="1.5"></path><path d="M283.92 417.85L331.75 402.7" stroke="rgba(37, 77, 47, 0.18)" stroke-width="1.5"></path><path d="M283.92 417.85L276.52 474.13" stroke="rgba(37, 77, 47, 0.18)" stroke-width="1.5"></path><path d="M276.52 474.13L276.52 474.13" stroke="rgba(37, 77, 47, 0.18)" stroke-width="1.5"></path><path d="M276.52 474.13L296.2 516.92" stroke="rgba(37, 77, 47, 0.18)" stroke-width="1.5"></path><path d="M276.52 474.13L329.57 471.56" stroke="rgba(37, 77, 47, 0.18)" stroke-width="1.5"></path><path d="M276.52 474.13L203.72 463.95" stroke="rgba(37, 77, 47, 0.18)" stroke-width="1.5"></path><path d="M276.52 474.13L228 408.76" stroke="rgba(37, 77, 47, 0.18)" stroke-width="1.5"></path><path d="M296.2 516.92L296.2 516.92" stroke="rgba(37, 77, 47, 0.18)" stroke-width="1.5"></path><path d="M296.2 516.92L344.99 537.77" stroke="rgba(37, 77, 47, 0.18)" stroke-width="1.5"></path><path d="M345.67 -45.43L345.67 -45.43" stroke="rgba(37, 77, 47, 0.18)" stroke-width="1.5"></path><path d="M345.67 -45.43L343.93 17.67" stroke="rgba(37, 77, 47, 0.18)" stroke-width="1.5"></path><path d="M345.67 -45.43L417.15 -31.07" stroke="rgba(37, 77, 47, 0.18)" stroke-width="1.5"></path><path d="M345.67 -45.43L398.02 42.92" stroke="rgba(37, 77, 47, 0.18)" stroke-width="1.5"></path><path d="M343.93 17.67L343.93 17.67" stroke="rgba(37, 77, 47, 0.18)" stroke-width="1.5"></path><path d="M343.93 17.67L398.02 42.92" stroke="rgba(37, 77, 47, 0.18)" stroke-width="1.5"></path><path d="M332.07 105.29L332.07 105.29" stroke="rgba(37, 77, 47, 0.18)" stroke-width="1.5"></path><path d="M332.07 105.29L334.19 162.37" stroke="rgba(37, 77, 47, 0.18)" stroke-width="1.5"></path><path d="M332.07 105.29L402.88 102.93" stroke="rgba(37, 77, 47, 0.18)" stroke-width="1.5"></path><path d="M334.19 162.37L334.19 162.37" stroke="rgba(37, 77, 47, 0.18)" stroke-width="1.5"></path><path d="M334.19 162.37L337.59 211.92" stroke="rgba(37, 77, 47, 0.18)" stroke-width="1.5"></path><path d="M334.19 162.37L265.87 149.39" stroke="rgba(37, 77, 47, 0.18)" stroke-width="1.5"></path><path d="M334.19 162.37L407.92 154.68" stroke="rgba(37, 77, 47, 0.18)" stroke-width="1.5"></path><path d="M337.59 211.92L337.59 211.92" stroke="rgba(37, 77, 47, 0.18)" stroke-width="1.5"></path><path d="M337.59 211.92L398.19 210.65" stroke="rgba(37, 77, 47, 0.18)" stroke-width="1.5"></path><path d="M344.75 276.34L344.75 276.34" stroke="rgba(37, 77, 47, 0.18)" stroke-width="1.5"></path><path d="M344.75 276.34L402.45 295.89" stroke="rgba(37, 77, 47, 0.18)" stroke-width="1.5"></path><path d="M344.75 276.34L337.59 211.92" stroke="rgba(37, 77, 47, 0.18)" stroke-width="1.5"></path><path d="M344.75 276.34L349.79 340.97" stroke="rgba(37, 77, 47, 0.18)" stroke-width="1.5"></path><path d="M344.75 276.34L398.19 210.65" stroke="rgba(37, 77, 47, 0.18)" stroke-width="1.5"></path><path d="M349.79 340.97L349.79 340.97" stroke="rgba(37, 77, 47, 0.18)" stroke-width="1.5"></path><path d="M349.79 340.97L410.28 330.26" stroke="rgba(37, 77, 47, 0.18)" stroke-width="1.5"></path><path d="M349.79 340.97L331.75 402.7" stroke="rgba(37, 77, 47, 0.18)" stroke-width="1.5"></path><path d="M331.75 402.7L331.75 402.7" stroke="rgba(37, 77, 47, 0.18)" stroke-width="1.5"></path><path d="M331.75 402.7L284.93 356.61" stroke="rgba(37, 77, 47, 0.18)" stroke-width="1.5"></path><path d="M329.57 471.56L329.57 471.56" stroke="rgba(37, 77, 47, 0.18)" stroke-width="1.5"></path><path d="M329.57 471.56L296.2 516.92" stroke="rgba(37, 77, 47, 0.18)" stroke-width="1.5"></path><path d="M329.57 471.56L344.99 537.77" stroke="rgba(37, 77, 47, 0.18)" stroke-width="1.5"></path><path d="M329.57 471.56L397.63 476.67" stroke="rgba(37, 77, 47, 0.18)" stroke-width="1.5"></path><path d="M329.57 471.56L331.75 402.7" stroke="rgba(37, 77, 47, 0.18)" stroke-width="1.5"></path><path d="M329.57 471.56L283.92 417.85" stroke="rgba(37, 77, 47, 0.18)" stroke-width="1.5"></path><path d="M344.99 537.77L344.99 537.77" stroke="rgba(37, 77, 47, 0.18)" stroke-width="1.5"></path><path d="M344.99 537.77L393.89 523.23" stroke="rgba(37, 77, 47, 0.18)" stroke-width="1.5"></path><path d="M417.15 -31.07L417.15 -31.07" stroke="rgba(37, 77, 47, 0.18)" stroke-width="1.5"></path><path d="M417.15 -31.07L483.54 -16.06" stroke="rgba(37, 77, 47, 0.18)" stroke-width="1.5"></path><path d="M417.15 -31.07L398.02 42.92" stroke="rgba(37, 77, 47, 0.18)" stroke-width="1.5"></path><path d="M398.02 42.92L398.02 42.92" stroke="rgba(37, 77, 47, 0.18)" stroke-width="1.5"></path><path d="M398.02 42.92L402.88 102.93" stroke="rgba(37, 77, 47, 0.18)" stroke-width="1.5"></path><path d="M398.02 42.92L466.73 45.78" stroke="rgba(37, 77, 47, 0.18)" stroke-width="1.5"></path><path d="M398.02 42.92L460.43 99.77" stroke="rgba(37, 77, 47, 0.18)" stroke-width="1.5"></path><path d="M398.02 42.92L332.07 105.29" stroke="rgba(37, 77, 47, 0.18)" stroke-width="1.5"></path><path d="M402.88 102.93L402.88 102.93" stroke="rgba(37, 77, 47, 0.18)" stroke-width="1.5"></path><path d="M402.88 102.93L407.92 154.68" stroke="rgba(37, 77, 47, 0.18)" stroke-width="1.5"></path><path d="M402.88 102.93L460.43 99.77" stroke="rgba(37, 77, 47, 0.18)" stroke-width="1.5"></path><path d="M402.88 102.93L473.43 149.94" stroke="rgba(37, 77, 47, 0.18)" stroke-width="1.5"></path><path d="M407.92 154.68L407.92 154.68" stroke="rgba(37, 77, 47, 0.18)" stroke-width="1.5"></path><path d="M407.92 154.68L398.19 210.65" stroke="rgba(37, 77, 47, 0.18)" stroke-width="1.5"></path><path d="M407.92 154.68L473.43 149.94" stroke="rgba(37, 77, 47, 0.18)" stroke-width="1.5"></path><path d="M407.92 154.68L460.43 99.77" stroke="rgba(37, 77, 47, 0.18)" stroke-width="1.5"></path><path d="M398.19 210.65L398.19 210.65" stroke="rgba(37, 77, 47, 0.18)" stroke-width="1.5"></path><path d="M402.45 295.89L402.45 295.89" stroke="rgba(37, 77, 47, 0.18)" stroke-width="1.5"></path><path d="M402.45 295.89L410.28 330.26" stroke="rgba(37, 77, 47, 0.18)" stroke-width="1.5"></path><path d="M402.45 295.89L349.79 340.97" stroke="rgba(37, 77, 47, 0.18)" stroke-width="1.5"></path><path d="M402.45 295.89L471.31 336.29" stroke="rgba(37, 77, 47, 0.18)" stroke-width="1.5"></path><path d="M410.28 330.26L410.28 330.26" stroke="rgba(37, 77, 47, 0.18)" stroke-width="1.5"></path><path d="M410.28 330.26L471.31 336.29" stroke="rgba(37, 77, 47, 0.18)" stroke-width="1.5"></path><path d="M410.28 330.26L404.7 397.26" stroke="rgba(37, 77, 47, 0.18)" stroke-width="1.5"></path><path d="M404.7 397.26L404.7 397.26" stroke="rgba(37, 77, 47, 0.18)" stroke-width="1.5"></path><path d="M404.7 397.26L461.9 400.32" stroke="rgba(37, 77, 47, 0.18)" stroke-width="1.5"></path><path d="M404.7 397.26L331.75 402.7" stroke="rgba(37, 77, 47, 0.18)" stroke-width="1.5"></path><path d="M404.7 397.26L349.79 340.97" stroke="rgba(37, 77, 47, 0.18)" stroke-width="1.5"></path><path d="M404.7 397.26L397.63 476.67" stroke="rgba(37, 77, 47, 0.18)" stroke-width="1.5"></path><path d="M404.7 397.26L471.31 336.29" stroke="rgba(37, 77, 47, 0.18)" stroke-width="1.5"></path><path d="M397.63 476.67L397.63 476.67" stroke="rgba(37, 77, 47, 0.18)" stroke-width="1.5"></path><path d="M397.63 476.67L393.89 523.23" stroke="rgba(37, 77, 47, 0.18)" stroke-width="1.5"></path><path d="M397.63 476.67L473.2 484.12" stroke="rgba(37, 77, 47, 0.18)" stroke-width="1.5"></path><path d="M397.63 476.67L344.99 537.77" stroke="rgba(37, 77, 47, 0.18)" stroke-width="1.5"></path><path d="M397.63 476.67L331.75 402.7" stroke="rgba(37, 77, 47, 0.18)" stroke-width="1.5"></path><path d="M393.89 523.23L393.89 523.23" stroke="rgba(37, 77, 47, 0.18)" stroke-width="1.5"></path><path d="M483.54 -16.06L483.54 -16.06" stroke="rgba(37, 77, 47, 0.18)" stroke-width="1.5"></path><path d="M483.54 -16.06L543.49 -29.65" stroke="rgba(37, 77, 47, 0.18)" stroke-width="1.5"></path><path d="M483.54 -16.06L466.73 45.78" stroke="rgba(37, 77, 47, 0.18)" stroke-width="1.5"></path><path d="M466.73 45.78L466.73 45.78" stroke="rgba(37, 77, 47, 0.18)" stroke-width="1.5"></path><path d="M466.73 45.78L460.43 99.77" stroke="rgba(37, 77, 47, 0.18)" stroke-width="1.5"></path><path d="M466.73 45.78L523.69 96.93" stroke="rgba(37, 77, 47, 0.18)" stroke-width="1.5"></path><path d="M460.43 99.77L460.43 99.77" stroke="rgba(37, 77, 47, 0.18)" stroke-width="1.5"></path><path d="M460.43 99.77L473.43 149.94" stroke="rgba(37, 77, 47, 0.18)" stroke-width="1.5"></path><path d="M460.43 99.77L523.69 96.93" stroke="rgba(37, 77, 47, 0.18)" stroke-width="1.5"></path><path d="M460.43 99.77L533.62 141.1" stroke="rgba(37, 77, 47, 0.18)" stroke-width="1.5"></path><path d="M473.43 149.94L473.43 149.94" stroke="rgba(37, 77, 47, 0.18)" stroke-width="1.5"></path><path d="M473.43 149.94L533.62 141.1" stroke="rgba(37, 77, 47, 0.18)" stroke-width="1.5"></path><path d="M465.97 222L465.97 222" stroke="rgba(37, 77, 47, 0.18)" stroke-width="1.5"></path><path d="M465.97 222L482.43 283.46" stroke="rgba(37, 77, 47, 0.18)" stroke-width="1.5"></path><path d="M465.97 222L530.56 209.73" stroke="rgba(37, 77, 47, 0.18)" stroke-width="1.5"></path><path d="M465.97 222L398.19 210.65" stroke="rgba(37, 77, 47, 0.18)" stroke-width="1.5"></path><path d="M465.97 222L473.43 149.94" stroke="rgba(37, 77, 47, 0.18)" stroke-width="1.5"></path><path d="M482.43 283.46L482.43 283.46" stroke="rgba(37, 77, 47, 0.18)" stroke-width="1.5"></path><path d="M482.43 283.46L471.31 336.29" stroke="rgba(37, 77, 47, 0.18)" stroke-width="1.5"></path><path d="M482.43 283.46L537.47 281.98" stroke="rgba(37, 77, 47, 0.18)" stroke-width="1.5"></path><path d="M482.43 283.46L520.98 352.73" stroke="rgba(37, 77, 47, 0.18)" stroke-width="1.5"></path><path d="M482.43 283.46L402.45 295.89" stroke="rgba(37, 77, 47, 0.18)" stroke-width="1.5"></path><path d="M482.43 283.46L410.28 330.26" stroke="rgba(37, 77, 47, 0.18)" stroke-width="1.5"></path><path d="M471.31 336.29L471.31 336.29" stroke="rgba(37, 77, 47, 0.18)" stroke-width="1.5"></path><path d="M471.31 336.29L520.98 352.73" stroke="rgba(37, 77, 47, 0.18)" stroke-width="1.5"></path><path d="M471.31 336.29L461.9 400.32" stroke="rgba(37, 77, 47, 0.18)" stroke-width="1.5"></path><path d="M461.9 400.32L461.9 400.32" stroke="rgba(37, 77, 47, 0.18)" stroke-width="1.5"></path><path d="M461.9 400.32L527.41 419.79" stroke="rgba(37, 77, 47, 0.18)" stroke-width="1.5"></path><path d="M473.2 484.12L473.2 484.12" stroke="rgba(37, 77, 47, 0.18)" stroke-width="1.5"></path><path d="M473.2 484.12L479.57 537.59" stroke="rgba(37, 77, 47, 0.18)" stroke-width="1.5"></path><path d="M473.2 484.12L523.26 460.24" stroke="rgba(37, 77, 47, 0.18)" stroke-width="1.5"></path><path d="M473.2 484.12L528.4 530.39" stroke="rgba(37, 77, 47, 0.18)" stroke-width="1.5"></path><path d="M473.2 484.12L527.41 419.79" stroke="rgba(37, 77, 47, 0.18)" stroke-width="1.5"></path><path d="M473.2 484.12L461.9 400.32" stroke="rgba(37, 77, 47, 0.18)" stroke-width="1.5"></path><path d="M479.57 537.59L479.57 537.59" stroke="rgba(37, 77, 47, 0.18)" stroke-width="1.5"></path><path d="M479.57 537.59L528.4 530.39" stroke="rgba(37, 77, 47, 0.18)" stroke-width="1.5"></path><path d="M479.57 537.59L393.89 523.23" stroke="rgba(37, 77, 47, 0.18)" stroke-width="1.5"></path><path d="M479.57 537.59L523.26 460.24" stroke="rgba(37, 77, 47, 0.18)" stroke-width="1.5"></path><path d="M479.57 537.59L397.63 476.67" stroke="rgba(37, 77, 47, 0.18)" stroke-width="1.5"></path><path d="M543.49 -29.65L543.49 -29.65" stroke="rgba(37, 77, 47, 0.18)" stroke-width="1.5"></path><path d="M543.49 -29.65L545.73 27.09" stroke="rgba(37, 77, 47, 0.18)" stroke-width="1.5"></path><path d="M543.49 -29.65L466.73 45.78" stroke="rgba(37, 77, 47, 0.18)" stroke-width="1.5"></path><path d="M543.49 -29.65L417.15 -31.07" stroke="rgba(37, 77, 47, 0.18)" stroke-width="1.5"></path><path d="M545.73 27.09L545.73 27.09" stroke="rgba(37, 77, 47, 0.18)" stroke-width="1.5"></path><path d="M545.73 27.09L523.69 96.93" stroke="rgba(37, 77, 47, 0.18)" stroke-width="1.5"></path><path d="M545.73 27.09L483.54 -16.06" stroke="rgba(37, 77, 47, 0.18)" stroke-width="1.5"></path><path d="M545.73 27.09L466.73 45.78" stroke="rgba(37, 77, 47, 0.18)" stroke-width="1.5"></path><path d="M545.73 27.09L460.43 99.77" stroke="rgba(37, 77, 47, 0.18)" stroke-width="1.5"></path><path d="M523.69 96.93L523.69 96.93" stroke="rgba(37, 77, 47, 0.18)" stroke-width="1.5"></path><path d="M523.69 96.93L533.62 141.1" stroke="rgba(37, 77, 47, 0.18)" stroke-width="1.5"></path><path d="M523.69 96.93L473.43 149.94" stroke="rgba(37, 77, 47, 0.18)" stroke-width="1.5"></path><path d="M533.62 141.1L533.62 141.1" stroke="rgba(37, 77, 47, 0.18)" stroke-width="1.5"></path><path d="M533.62 141.1L530.56 209.73" stroke="rgba(37, 77, 47, 0.18)" stroke-width="1.5"></path><path d="M533.62 141.1L465.97 222" stroke="rgba(37, 77, 47, 0.18)" stroke-width="1.5"></path><path d="M533.62 141.1L545.73 27.09" stroke="rgba(37, 77, 47, 0.18)" stroke-width="1.5"></path><path d="M530.56 209.73L530.56 209.73" stroke="rgba(37, 77, 47, 0.18)" stroke-width="1.5"></path><path d="M530.56 209.73L537.47 281.98" stroke="rgba(37, 77, 47, 0.18)" stroke-width="1.5"></path><path d="M530.56 209.73L473.43 149.94" stroke="rgba(37, 77, 47, 0.18)" stroke-width="1.5"></path><path d="M537.47 281.98L537.47 281.98" stroke="rgba(37, 77, 47, 0.18)" stroke-width="1.5"></path><path d="M520.98 352.73L520.98 352.73" stroke="rgba(37, 77, 47, 0.18)" stroke-width="1.5"></path><path d="M520.98 352.73L527.41 419.79" stroke="rgba(37, 77, 47, 0.18)" stroke-width="1.5"></path><path d="M520.98 352.73L537.47 281.98" stroke="rgba(37, 77, 47, 0.18)" stroke-width="1.5"></path><path d="M520.98 352.73L461.9 400.32" stroke="rgba(37, 77, 47, 0.18)" stroke-width="1.5"></path><path d="M527.41 419.79L527.41 419.79" stroke="rgba(37, 77, 47, 0.18)" stroke-width="1.5"></path><path d="M527.41 419.79L523.26 460.24" stroke="rgba(37, 77, 47, 0.18)" stroke-width="1.5"></path><path d="M523.26 460.24L523.26 460.24" stroke="rgba(37, 77, 47, 0.18)" stroke-width="1.5"></path><path d="M523.26 460.24L528.4 530.39" stroke="rgba(37, 77, 47, 0.18)" stroke-width="1.5"></path><path d="M528.4 530.39L528.4 530.39" stroke="rgba(37, 77, 47, 0.18)" stroke-width="1.5"></path><path d="M528.4 530.39L527.41 419.79" stroke="rgba(37, 77, 47, 0.18)" stroke-width="1.5"></path><circle r="5" cx="-30.13" cy="350.9" fill="rgba(37, 77, 47, 0.18)"></circle><circle r="5" cx="-26.11" cy="407.37" fill="rgba(37, 77, 47, 0.18)"></circle><circle r="5" cx="-28.48" cy="457.68" fill="rgba(37, 77, 47, 0.18)"></circle><circle r="5" cx="-33.98" cy="544.19" fill="rgba(37, 77, 47, 0.18)"></circle><circle r="5" cx="27.28" cy="329.61" fill="rgba(37, 77, 47, 0.18)"></circle><circle r="5" cx="24.85" cy="401.48" fill="rgba(37, 77, 47, 0.18)"></circle><circle r="5" cx="18.23" cy="478.35" fill="rgba(37, 77, 47, 0.18)"></circle><circle r="5" cx="42.88" cy="544.09" fill="rgba(37, 77, 47, 0.18)"></circle><circle r="5" cx="80.84" cy="332.4" fill="rgba(37, 77, 47, 0.18)"></circle><circle r="5" cx="80.03" cy="394.63" fill="rgba(37, 77, 47, 0.18)"></circle><circle r="5" cx="84.48" cy="539.92" fill="rgba(37, 77, 47, 0.18)"></circle><circle r="5" cx="141.52" cy="295.67" fill="rgba(37, 77, 47, 0.18)"></circle><circle r="5" cx="155.58" cy="335.38" fill="rgba(37, 77, 47, 0.18)"></circle><circle r="5" cx="158.07" cy="416.92" fill="rgba(37, 77, 47, 0.18)"></circle><circle r="5" cx="165.35" cy="476.4" fill="rgba(37, 77, 47, 0.18)"></circle><circle r="5" cx="166.9" cy="538.06" fill="rgba(37, 77, 47, 0.18)"></circle><circle r="5" cx="205.61" cy="280.83" fill="rgba(37, 77, 47, 0.18)"></circle><circle r="5" cx="223.52" cy="345.4" fill="rgba(37, 77, 47, 0.18)"></circle><circle r="5" cx="228" cy="408.76" fill="rgba(37, 77, 47, 0.18)"></circle><circle r="5" cx="203.72" cy="463.95" fill="rgba(37, 77, 47, 0.18)"></circle><circle r="5" cx="224.81" cy="534.32" fill="rgba(37, 77, 47, 0.18)"></circle><circle r="5" cx="285.68" cy="101.4" fill="rgba(37, 77, 47, 0.18)"></circle><circle r="5" cx="265.87" cy="149.39" fill="rgba(37, 77, 47, 0.18)"></circle><circle r="5" cx="268.22" cy="233.69" fill="rgba(37, 77, 47, 0.18)"></circle><circle r="5" cx="276.46" cy="274.48" fill="rgba(37, 77, 47, 0.18)"></circle><circle r="5" cx="284.93" cy="356.61" fill="rgba(37, 77, 47, 0.18)"></circle><circle r="5" cx="283.92" cy="417.85" fill="rgba(37, 77, 47, 0.18)"></circle><circle r="5" cx="276.52" cy="474.13" fill="rgba(37, 77, 47, 0.18)"></circle><circle r="5" cx="296.2" cy="516.92" fill="rgba(37, 77, 47, 0.18)"></circle><circle r="5" cx="345.67" cy="-45.43" fill="rgba(37, 77, 47, 0.18)"></circle><circle r="5" cx="343.93" cy="17.67" fill="rgba(37, 77, 47, 0.18)"></circle><circle r="5" cx="332.07" cy="105.29" fill="rgba(37, 77, 47, 0.18)"></circle><circle r="5" cx="334.19" cy="162.37" fill="rgba(37, 77, 47, 0.18)"></circle><circle r="5" cx="337.59" cy="211.92" fill="rgba(37, 77, 47, 0.18)"></circle><circle r="5" cx="344.75" cy="276.34" fill="rgba(37, 77, 47, 0.18)"></circle><circle r="5" cx="349.79" cy="340.97" fill="rgba(37, 77, 47, 0.18)"></circle><circle r="5" cx="331.75" cy="402.7" fill="rgba(37, 77, 47, 0.18)"></circle><circle r="5" cx="329.57" cy="471.56" fill="rgba(37, 77, 47, 0.18)"></circle><circle r="5" cx="344.99" cy="537.77" fill="rgba(37, 77, 47, 0.18)"></circle><circle r="5" cx="417.15" cy="-31.07" fill="rgba(37, 77, 47, 0.18)"></circle><circle r="5" cx="398.02" cy="42.92" fill="rgba(37, 77, 47, 0.18)"></circle><circle r="5" cx="402.88" cy="102.93" fill="rgba(37, 77, 47, 0.18)"></circle><circle r="5" cx="407.92" cy="154.68" fill="rgba(37, 77, 47, 0.18)"></circle><circle r="5" cx="398.19" cy="210.65" fill="rgba(37, 77, 47, 0.18)"></circle><circle r="5" cx="402.45" cy="295.89" fill="rgba(37, 77, 47, 0.18)"></circle><circle r="5" cx="410.28" cy="330.26" fill="rgba(37, 77, 47, 0.18)"></circle><circle r="5" cx="404.7" cy="397.26" fill="rgba(37, 77, 47, 0.18)"></circle><circle r="5" cx="397.63" cy="476.67" fill="rgba(37, 77, 47, 0.18)"></circle><circle r="5" cx="393.89" cy="523.23" fill="rgba(37, 77, 47, 0.18)"></circle><circle r="5" cx="483.54" cy="-16.06" fill="rgba(37, 77, 47, 0.18)"></circle><circle r="5" cx="466.73" cy="45.78" fill="rgba(37, 77, 47, 0.18)"></circle><circle r="5" cx="460.43" cy="99.77" fill="rgba(37, 77, 47, 0.18)"></circle><circle r="5" cx="473.43" cy="149.94" fill="rgba(37, 77, 47, 0.18)"></circle><circle r="5" cx="465.97" cy="222" fill="rgba(37, 77, 47, 0.18)"></circle><circle r="5" cx="482.43" cy="283.46" fill="rgba(37, 77, 47, 0.18)"></circle><circle r="5" cx="471.31" cy="336.29" fill="rgba(37, 77, 47, 0.18)"></circle><circle r="5" cx="461.9" cy="400.32" fill="rgba(37, 77, 47, 0.18)"></circle><circle r="5" cx="473.2" cy="484.12" fill="rgba(37, 77, 47, 0.18)"></circle><circle r="5" cx="479.57" cy="537.59" fill="rgba(37, 77, 47, 0.18)"></circle><circle r="5" cx="543.49" cy="-29.65" fill="rgba(37, 77, 47, 0.18)"></circle><circle r="5" cx="545.73" cy="27.09" fill="rgba(37, 77, 47, 0.18)"></circle><circle r="5" cx="523.69" cy="96.93" fill="rgba(37, 77, 47, 0.18)"></circle><circle r="5" cx="533.62" cy="141.1" fill="rgba(37, 77, 47, 0.18)"></circle><circle r="5" cx="530.56" cy="209.73" fill="rgba(37, 77, 47, 0.18)"></circle><circle r="5" cx="537.47" cy="281.98" fill="rgba(37, 77, 47, 0.18)"></circle><circle r="5" cx="520.98" cy="352.73" fill="rgba(37, 77, 47, 0.18)"></circle><circle r="5" cx="527.41" cy="419.79" fill="rgba(37, 77, 47, 0.18)"></circle><circle r="5" cx="523.26" cy="460.24" fill="rgba(37, 77, 47, 0.18)"></circle><circle r="5" cx="528.4" cy="530.39" fill="rgba(37, 77, 47, 0.18)"></circle><path d="M-36.95 545.22L-36.95 545.22" stroke="hsla(0, 0%, 0%, 0.18)" stroke-width="1.5"></path><path d="M-36.95 545.22L-40.77 470.31" stroke="hsla(0, 0%, 0%, 0.18)" stroke-width="1.5"></path><path d="M-36.95 545.22L41.36 521.04" stroke="hsla(0, 0%, 0%, 0.18)" stroke-width="1.5"></path><path d="M-36.95 545.22L18.97 455.8" stroke="hsla(0, 0%, 0%, 0.18)" stroke-width="1.5"></path><path d="M-36.95 545.22L85.07 535.4" stroke="hsla(0, 0%, 0%, 0.18)" stroke-width="1.5"></path><path d="M21.27 420.51L21.27 420.51" stroke="hsla(0, 0%, 0%, 0.18)" stroke-width="1.5"></path><path d="M21.27 420.51L18.97 455.8" stroke="hsla(0, 0%, 0%, 0.18)" stroke-width="1.5"></path><path d="M21.27 420.51L-40.33 411.65" stroke="hsla(0, 0%, 0%, 0.18)" stroke-width="1.5"></path><path d="M21.27 420.51L79.86 467.36" stroke="hsla(0, 0%, 0%, 0.18)" stroke-width="1.5"></path><path d="M268.62 353.15L268.62 353.15" stroke="hsla(0, 0%, 0%, 0.18)" stroke-width="1.5"></path><path d="M268.62 353.15L232.24 336.76" stroke="hsla(0, 0%, 0%, 0.18)" stroke-width="1.5"></path><path d="M268.62 353.15L274.42 410.23" stroke="hsla(0, 0%, 0%, 0.18)" stroke-width="1.5"></path><path d="M268.62 353.15L231.19 405.35" stroke="hsla(0, 0%, 0%, 0.18)" stroke-width="1.5"></path><path d="M268.62 353.15L354.73 394.21" stroke="hsla(0, 0%, 0%, 0.18)" stroke-width="1.5"></path><path d="M268.62 353.15L265.96 471.61" stroke="hsla(0, 0%, 0%, 0.18)" stroke-width="1.5"></path><path d="M354.73 394.21L354.73 394.21" stroke="hsla(0, 0%, 0%, 0.18)" stroke-width="1.5"></path><path d="M354.73 394.21L399.71 397.34" stroke="hsla(0, 0%, 0%, 0.18)" stroke-width="1.5"></path><path d="M354.73 394.21L414.18 344.56" stroke="hsla(0, 0%, 0%, 0.18)" stroke-width="1.5"></path><path d="M354.73 394.21L335.53 471.83" stroke="hsla(0, 0%, 0%, 0.18)" stroke-width="1.5"></path><path d="M354.73 394.21L274.42 410.23" stroke="hsla(0, 0%, 0%, 0.18)" stroke-width="1.5"></path><path d="M397.68 222.28L397.68 222.28" stroke="hsla(0, 0%, 0%, 0.18)" stroke-width="1.5"></path><path d="M397.68 222.28L405.38 165.48" stroke="hsla(0, 0%, 0%, 0.18)" stroke-width="1.5"></path><path d="M397.68 222.28L407.06 295.56" stroke="hsla(0, 0%, 0%, 0.18)" stroke-width="1.5"></path><path d="M460.93 166.21L460.93 166.21" stroke="hsla(0, 0%, 0%, 0.18)" stroke-width="1.5"></path><path d="M460.93 166.21L405.38 165.48" stroke="hsla(0, 0%, 0%, 0.18)" stroke-width="1.5"></path><path d="M460.93 166.21L457.52 103.18" stroke="hsla(0, 0%, 0%, 0.18)" stroke-width="1.5"></path><path d="M460.93 166.21L480.65 229.14" stroke="hsla(0, 0%, 0%, 0.18)" stroke-width="1.5"></path><path d="M460.93 166.21L401.69 108.41" stroke="hsla(0, 0%, 0%, 0.18)" stroke-width="1.5"></path><path d="M460.93 166.21L542.13 143.22" stroke="hsla(0, 0%, 0%, 0.18)" stroke-width="1.5"></path><path d="M460.93 166.21L397.68 222.28" stroke="hsla(0, 0%, 0%, 0.18)" stroke-width="1.5"></path><path d="M474.14 328.89L474.14 328.89" stroke="hsla(0, 0%, 0%, 0.18)" stroke-width="1.5"></path><path d="M474.14 328.89L458.98 271.57" stroke="hsla(0, 0%, 0%, 0.18)" stroke-width="1.5"></path><path d="M474.14 328.89L414.18 344.56" stroke="hsla(0, 0%, 0%, 0.18)" stroke-width="1.5"></path><path d="M474.14 328.89L541.89 341.42" stroke="hsla(0, 0%, 0%, 0.18)" stroke-width="1.5"></path><path d="M479.89 478.69L479.89 478.69" stroke="hsla(0, 0%, 0%, 0.18)" stroke-width="1.5"></path><path d="M479.89 478.69L519.67 461.75" stroke="hsla(0, 0%, 0%, 0.18)" stroke-width="1.5"></path><path d="M479.89 478.69L476.61 415.26" stroke="hsla(0, 0%, 0%, 0.18)" stroke-width="1.5"></path><path d="M479.89 478.69L417.88 459.56" stroke="hsla(0, 0%, 0%, 0.18)" stroke-width="1.5"></path><path d="M519.67 461.75L519.67 461.75" stroke="hsla(0, 0%, 0%, 0.18)" stroke-width="1.5"></path><path d="M519.67 461.75L476.61 415.26" stroke="hsla(0, 0%, 0%, 0.18)" stroke-width="1.5"></path><path d="M519.67 461.75L542.58 521.79" stroke="hsla(0, 0%, 0%, 0.18)" stroke-width="1.5"></path><path d="M-40.33 411.65L-40.33 411.65" stroke="hsla(0, 0%, 0%, 0.18)" stroke-width="1.5"></path><path d="M-40.33 411.65L-40.77 470.31" stroke="hsla(0, 0%, 0%, 0.18)" stroke-width="1.5"></path><path d="M-40.33 411.65L18.97 455.8" stroke="hsla(0, 0%, 0%, 0.18)" stroke-width="1.5"></path><path d="M-40.77 470.31L-40.77 470.31" stroke="hsla(0, 0%, 0%, 0.18)" stroke-width="1.5"></path><path d="M-40.77 470.31L18.97 455.8" stroke="hsla(0, 0%, 0%, 0.18)" stroke-width="1.5"></path><path d="M-40.77 470.31L21.27 420.51" stroke="hsla(0, 0%, 0%, 0.18)" stroke-width="1.5"></path><path d="M-40.77 470.31L41.36 521.04" stroke="hsla(0, 0%, 0%, 0.18)" stroke-width="1.5"></path><path d="M-40.77 470.31L79.86 467.36" stroke="hsla(0, 0%, 0%, 0.18)" stroke-width="1.5"></path><path d="M18.97 455.8L18.97 455.8" stroke="hsla(0, 0%, 0%, 0.18)" stroke-width="1.5"></path><path d="M41.36 521.04L41.36 521.04" stroke="hsla(0, 0%, 0%, 0.18)" stroke-width="1.5"></path><path d="M41.36 521.04L85.07 535.4" stroke="hsla(0, 0%, 0%, 0.18)" stroke-width="1.5"></path><path d="M41.36 521.04L79.86 467.36" stroke="hsla(0, 0%, 0%, 0.18)" stroke-width="1.5"></path><path d="M41.36 521.04L18.97 455.8" stroke="hsla(0, 0%, 0%, 0.18)" stroke-width="1.5"></path><path d="M41.36 521.04L21.27 420.51" stroke="hsla(0, 0%, 0%, 0.18)" stroke-width="1.5"></path><path d="M107.27 406.5L107.27 406.5" stroke="hsla(0, 0%, 0%, 0.18)" stroke-width="1.5"></path><path d="M107.27 406.5L156.95 409.01" stroke="hsla(0, 0%, 0%, 0.18)" stroke-width="1.5"></path><path d="M107.27 406.5L79.86 467.36" stroke="hsla(0, 0%, 0%, 0.18)" stroke-width="1.5"></path><path d="M107.27 406.5L21.27 420.51" stroke="hsla(0, 0%, 0%, 0.18)" stroke-width="1.5"></path><path d="M107.27 406.5L171.55 465.89" stroke="hsla(0, 0%, 0%, 0.18)" stroke-width="1.5"></path><path d="M107.27 406.5L18.97 455.8" stroke="hsla(0, 0%, 0%, 0.18)" stroke-width="1.5"></path><path d="M79.86 467.36L79.86 467.36" stroke="hsla(0, 0%, 0%, 0.18)" stroke-width="1.5"></path><path d="M79.86 467.36L18.97 455.8" stroke="hsla(0, 0%, 0%, 0.18)" stroke-width="1.5"></path><path d="M85.07 535.4L85.07 535.4" stroke="hsla(0, 0%, 0%, 0.18)" stroke-width="1.5"></path><path d="M85.07 535.4L148.06 538.91" stroke="hsla(0, 0%, 0%, 0.18)" stroke-width="1.5"></path><path d="M85.07 535.4L79.86 467.36" stroke="hsla(0, 0%, 0%, 0.18)" stroke-width="1.5"></path><path d="M85.07 535.4L18.97 455.8" stroke="hsla(0, 0%, 0%, 0.18)" stroke-width="1.5"></path><path d="M85.07 535.4L171.55 465.89" stroke="hsla(0, 0%, 0%, 0.18)" stroke-width="1.5"></path><path d="M156.95 409.01L156.95 409.01" stroke="hsla(0, 0%, 0%, 0.18)" stroke-width="1.5"></path><path d="M156.95 409.01L171.55 465.89" stroke="hsla(0, 0%, 0%, 0.18)" stroke-width="1.5"></path><path d="M156.95 409.01L231.19 405.35" stroke="hsla(0, 0%, 0%, 0.18)" stroke-width="1.5"></path><path d="M156.95 409.01L224.29 468.69" stroke="hsla(0, 0%, 0%, 0.18)" stroke-width="1.5"></path><path d="M156.95 409.01L79.86 467.36" stroke="hsla(0, 0%, 0%, 0.18)" stroke-width="1.5"></path><path d="M171.55 465.89L171.55 465.89" stroke="hsla(0, 0%, 0%, 0.18)" stroke-width="1.5"></path><path d="M171.55 465.89L224.29 468.69" stroke="hsla(0, 0%, 0%, 0.18)" stroke-width="1.5"></path><path d="M171.55 465.89L215.83 525.78" stroke="hsla(0, 0%, 0%, 0.18)" stroke-width="1.5"></path><path d="M171.55 465.89L148.06 538.91" stroke="hsla(0, 0%, 0%, 0.18)" stroke-width="1.5"></path><path d="M171.55 465.89L231.19 405.35" stroke="hsla(0, 0%, 0%, 0.18)" stroke-width="1.5"></path><path d="M148.06 538.91L148.06 538.91" stroke="hsla(0, 0%, 0%, 0.18)" stroke-width="1.5"></path><path d="M148.06 538.91L215.83 525.78" stroke="hsla(0, 0%, 0%, 0.18)" stroke-width="1.5"></path><path d="M148.06 538.91L79.86 467.36" stroke="hsla(0, 0%, 0%, 0.18)" stroke-width="1.5"></path><path d="M232.24 336.76L232.24 336.76" stroke="hsla(0, 0%, 0%, 0.18)" stroke-width="1.5"></path><path d="M232.24 336.76L231.19 405.35" stroke="hsla(0, 0%, 0%, 0.18)" stroke-width="1.5"></path><path d="M232.24 336.76L274.42 410.23" stroke="hsla(0, 0%, 0%, 0.18)" stroke-width="1.5"></path><path d="M232.24 336.76L156.95 409.01" stroke="hsla(0, 0%, 0%, 0.18)" stroke-width="1.5"></path><path d="M231.19 405.35L231.19 405.35" stroke="hsla(0, 0%, 0%, 0.18)" stroke-width="1.5"></path><path d="M231.19 405.35L274.42 410.23" stroke="hsla(0, 0%, 0%, 0.18)" stroke-width="1.5"></path><path d="M224.29 468.69L224.29 468.69" stroke="hsla(0, 0%, 0%, 0.18)" stroke-width="1.5"></path><path d="M224.29 468.69L265.96 471.61" stroke="hsla(0, 0%, 0%, 0.18)" stroke-width="1.5"></path><path d="M215.83 525.78L215.83 525.78" stroke="hsla(0, 0%, 0%, 0.18)" stroke-width="1.5"></path><path d="M215.83 525.78L224.29 468.69" stroke="hsla(0, 0%, 0%, 0.18)" stroke-width="1.5"></path><path d="M215.83 525.78L265.96 471.61" stroke="hsla(0, 0%, 0%, 0.18)" stroke-width="1.5"></path><path d="M215.83 525.78L292.39 526.39" stroke="hsla(0, 0%, 0%, 0.18)" stroke-width="1.5"></path><path d="M274.42 410.23L274.42 410.23" stroke="hsla(0, 0%, 0%, 0.18)" stroke-width="1.5"></path><path d="M274.42 410.23L265.96 471.61" stroke="hsla(0, 0%, 0%, 0.18)" stroke-width="1.5"></path><path d="M274.42 410.23L224.29 468.69" stroke="hsla(0, 0%, 0%, 0.18)" stroke-width="1.5"></path><path d="M265.96 471.61L265.96 471.61" stroke="hsla(0, 0%, 0%, 0.18)" stroke-width="1.5"></path><path d="M265.96 471.61L292.39 526.39" stroke="hsla(0, 0%, 0%, 0.18)" stroke-width="1.5"></path><path d="M265.96 471.61L335.53 471.83" stroke="hsla(0, 0%, 0%, 0.18)" stroke-width="1.5"></path><path d="M292.39 526.39L292.39 526.39" stroke="hsla(0, 0%, 0%, 0.18)" stroke-width="1.5"></path><path d="M292.39 526.39L340.28 543.69" stroke="hsla(0, 0%, 0%, 0.18)" stroke-width="1.5"></path><path d="M292.39 526.39L335.53 471.83" stroke="hsla(0, 0%, 0%, 0.18)" stroke-width="1.5"></path><path d="M292.39 526.39L224.29 468.69" stroke="hsla(0, 0%, 0%, 0.18)" stroke-width="1.5"></path><path d="M292.39 526.39L394.47 517.09" stroke="hsla(0, 0%, 0%, 0.18)" stroke-width="1.5"></path><path d="M335.53 471.83L335.53 471.83" stroke="hsla(0, 0%, 0%, 0.18)" stroke-width="1.5"></path><path d="M335.53 471.83L340.28 543.69" stroke="hsla(0, 0%, 0%, 0.18)" stroke-width="1.5"></path><path d="M340.28 543.69L340.28 543.69" stroke="hsla(0, 0%, 0%, 0.18)" stroke-width="1.5"></path><path d="M340.28 543.69L394.47 517.09" stroke="hsla(0, 0%, 0%, 0.18)" stroke-width="1.5"></path><path d="M340.28 543.69L265.96 471.61" stroke="hsla(0, 0%, 0%, 0.18)" stroke-width="1.5"></path><path d="M404.7 -27.81L404.7 -27.81" stroke="hsla(0, 0%, 0%, 0.18)" stroke-width="1.5"></path><path d="M404.7 -27.81L477.93 -19.72" stroke="hsla(0, 0%, 0%, 0.18)" stroke-width="1.5"></path><path d="M404.7 -27.81L520.11 -21.75" stroke="hsla(0, 0%, 0%, 0.18)" stroke-width="1.5"></path><path d="M404.7 -27.81L401.69 108.41" stroke="hsla(0, 0%, 0%, 0.18)" stroke-width="1.5"></path><path d="M404.7 -27.81L457.52 103.18" stroke="hsla(0, 0%, 0%, 0.18)" stroke-width="1.5"></path><path d="M404.7 -27.81L537.71 41.21" stroke="hsla(0, 0%, 0%, 0.18)" stroke-width="1.5"></path><path d="M404.7 -27.81L527.83 80.43" stroke="hsla(0, 0%, 0%, 0.18)" stroke-width="1.5"></path><path d="M401.69 108.41L401.69 108.41" stroke="hsla(0, 0%, 0%, 0.18)" stroke-width="1.5"></path><path d="M401.69 108.41L457.52 103.18" stroke="hsla(0, 0%, 0%, 0.18)" stroke-width="1.5"></path><path d="M401.69 108.41L405.38 165.48" stroke="hsla(0, 0%, 0%, 0.18)" stroke-width="1.5"></path><path d="M401.69 108.41L397.68 222.28" stroke="hsla(0, 0%, 0%, 0.18)" stroke-width="1.5"></path><path d="M401.69 108.41L527.83 80.43" stroke="hsla(0, 0%, 0%, 0.18)" stroke-width="1.5"></path><path d="M405.38 165.48L405.38 165.48" stroke="hsla(0, 0%, 0%, 0.18)" stroke-width="1.5"></path><path d="M407.06 295.56L407.06 295.56" stroke="hsla(0, 0%, 0%, 0.18)" stroke-width="1.5"></path><path d="M407.06 295.56L414.18 344.56" stroke="hsla(0, 0%, 0%, 0.18)" stroke-width="1.5"></path><path d="M407.06 295.56L458.98 271.57" stroke="hsla(0, 0%, 0%, 0.18)" stroke-width="1.5"></path><path d="M407.06 295.56L474.14 328.89" stroke="hsla(0, 0%, 0%, 0.18)" stroke-width="1.5"></path><path d="M414.18 344.56L414.18 344.56" stroke="hsla(0, 0%, 0%, 0.18)" stroke-width="1.5"></path><path d="M414.18 344.56L399.71 397.34" stroke="hsla(0, 0%, 0%, 0.18)" stroke-width="1.5"></path><path d="M399.71 397.34L399.71 397.34" stroke="hsla(0, 0%, 0%, 0.18)" stroke-width="1.5"></path><path d="M417.88 459.56L417.88 459.56" stroke="hsla(0, 0%, 0%, 0.18)" stroke-width="1.5"></path><path d="M417.88 459.56L394.47 517.09" stroke="hsla(0, 0%, 0%, 0.18)" stroke-width="1.5"></path><path d="M417.88 459.56L399.71 397.34" stroke="hsla(0, 0%, 0%, 0.18)" stroke-width="1.5"></path><path d="M394.47 517.09L394.47 517.09" stroke="hsla(0, 0%, 0%, 0.18)" stroke-width="1.5"></path><path d="M477.93 -19.72L477.93 -19.72" stroke="hsla(0, 0%, 0%, 0.18)" stroke-width="1.5"></path><path d="M477.93 -19.72L520.11 -21.75" stroke="hsla(0, 0%, 0%, 0.18)" stroke-width="1.5"></path><path d="M477.93 -19.72L537.71 41.21" stroke="hsla(0, 0%, 0%, 0.18)" stroke-width="1.5"></path><path d="M477.93 -19.72L527.83 80.43" stroke="hsla(0, 0%, 0%, 0.18)" stroke-width="1.5"></path><path d="M477.93 -19.72L457.52 103.18" stroke="hsla(0, 0%, 0%, 0.18)" stroke-width="1.5"></path><path d="M477.93 -19.72L401.69 108.41" stroke="hsla(0, 0%, 0%, 0.18)" stroke-width="1.5"></path><path d="M457.52 103.18L457.52 103.18" stroke="hsla(0, 0%, 0%, 0.18)" stroke-width="1.5"></path><path d="M457.52 103.18L527.83 80.43" stroke="hsla(0, 0%, 0%, 0.18)" stroke-width="1.5"></path><path d="M480.65 229.14L480.65 229.14" stroke="hsla(0, 0%, 0%, 0.18)" stroke-width="1.5"></path><path d="M480.65 229.14L458.98 271.57" stroke="hsla(0, 0%, 0%, 0.18)" stroke-width="1.5"></path><path d="M480.65 229.14L532.07 225.43" stroke="hsla(0, 0%, 0%, 0.18)" stroke-width="1.5"></path><path d="M480.65 229.14L397.68 222.28" stroke="hsla(0, 0%, 0%, 0.18)" stroke-width="1.5"></path><path d="M458.98 271.57L458.98 271.57" stroke="hsla(0, 0%, 0%, 0.18)" stroke-width="1.5"></path><path d="M458.98 271.57L397.68 222.28" stroke="hsla(0, 0%, 0%, 0.18)" stroke-width="1.5"></path><path d="M476.61 415.26L476.61 415.26" stroke="hsla(0, 0%, 0%, 0.18)" stroke-width="1.5"></path><path d="M476.61 415.26L544.03 396.39" stroke="hsla(0, 0%, 0%, 0.18)" stroke-width="1.5"></path><path d="M476.61 415.26L417.88 459.56" stroke="hsla(0, 0%, 0%, 0.18)" stroke-width="1.5"></path><path d="M476.61 415.26L399.71 397.34" stroke="hsla(0, 0%, 0%, 0.18)" stroke-width="1.5"></path><path d="M520.11 -21.75L520.11 -21.75" stroke="hsla(0, 0%, 0%, 0.18)" stroke-width="1.5"></path><path d="M520.11 -21.75L537.71 41.21" stroke="hsla(0, 0%, 0%, 0.18)" stroke-width="1.5"></path><path d="M537.71 41.21L537.71 41.21" stroke="hsla(0, 0%, 0%, 0.18)" stroke-width="1.5"></path><path d="M537.71 41.21L527.83 80.43" stroke="hsla(0, 0%, 0%, 0.18)" stroke-width="1.5"></path><path d="M527.83 80.43L527.83 80.43" stroke="hsla(0, 0%, 0%, 0.18)" stroke-width="1.5"></path><path d="M527.83 80.43L542.13 143.22" stroke="hsla(0, 0%, 0%, 0.18)" stroke-width="1.5"></path><path d="M542.13 143.22L542.13 143.22" stroke="hsla(0, 0%, 0%, 0.18)" stroke-width="1.5"></path><path d="M542.13 143.22L532.07 225.43" stroke="hsla(0, 0%, 0%, 0.18)" stroke-width="1.5"></path><path d="M532.07 225.43L532.07 225.43" stroke="hsla(0, 0%, 0%, 0.18)" stroke-width="1.5"></path><path d="M541.89 341.42L541.89 341.42" stroke="hsla(0, 0%, 0%, 0.18)" stroke-width="1.5"></path><path d="M541.89 341.42L544.03 396.39" stroke="hsla(0, 0%, 0%, 0.18)" stroke-width="1.5"></path><path d="M544.03 396.39L544.03 396.39" stroke="hsla(0, 0%, 0%, 0.18)" stroke-width="1.5"></path><path d="M544.03 396.39L519.67 461.75" stroke="hsla(0, 0%, 0%, 0.18)" stroke-width="1.5"></path><path d="M544.03 396.39L474.14 328.89" stroke="hsla(0, 0%, 0%, 0.18)" stroke-width="1.5"></path><path d="M542.58 521.79L542.58 521.79" stroke="hsla(0, 0%, 0%, 0.18)" stroke-width="1.5"></path><path d="M542.58 521.79L479.89 478.69" stroke="hsla(0, 0%, 0%, 0.18)" stroke-width="1.5"></path><path d="M542.58 521.79L476.61 415.26" stroke="hsla(0, 0%, 0%, 0.18)" stroke-width="1.5"></path><path d="M542.58 521.79L544.03 396.39" stroke="hsla(0, 0%, 0%, 0.18)" stroke-width="1.5"></path><path d="M542.58 521.79L417.88 459.56" stroke="hsla(0, 0%, 0%, 0.18)" stroke-width="1.5"></path><circle r="25" cx="-36.95" cy="545.22" fill="url(#SvgjsRadialGradient1047)"></circle><circle r="25" cx="21.27" cy="420.51" fill="url(#SvgjsRadialGradient1047)"></circle><circle r="25" cx="268.62" cy="353.15" fill="url(#SvgjsRadialGradient1047)"></circle><circle r="25" cx="354.73" cy="394.21" fill="url(#SvgjsRadialGradient1047)"></circle><circle r="25" cx="397.68" cy="222.28" fill="url(#SvgjsRadialGradient1047)"></circle><circle r="25" cx="460.93" cy="166.21" fill="url(#SvgjsRadialGradient1047)"></circle><circle r="25" cx="474.14" cy="328.89" fill="url(#SvgjsRadialGradient1047)"></circle><circle r="25" cx="479.89" cy="478.69" fill="url(#SvgjsRadialGradient1047)"></circle><circle r="25" cx="519.67" cy="461.75" fill="url(#SvgjsRadialGradient1047)"></circle><circle r="5" cx="-40.33" cy="411.65" fill="rgba(232, 232, 232, 0.59)"></circle><circle r="5" cx="-40.77" cy="470.31" fill="rgba(232, 232, 232, 0.59)"></circle><circle r="5" cx="18.97" cy="455.8" fill="rgba(232, 232, 232, 0.59)"></circle><circle r="5" cx="41.36" cy="521.04" fill="rgba(232, 232, 232, 0.59)"></circle><circle r="5" cx="107.27" cy="406.5" fill="rgba(232, 232, 232, 0.59)"></circle><circle r="5" cx="79.86" cy="467.36" fill="rgba(232, 232, 232, 0.59)"></circle><circle r="5" cx="85.07" cy="535.4" fill="rgba(232, 232, 232, 0.59)"></circle><circle r="5" cx="156.95" cy="409.01" fill="rgba(232, 232, 232, 0.59)"></circle><circle r="5" cx="171.55" cy="465.89" fill="rgba(232, 232, 232, 0.59)"></circle><circle r="5" cx="148.06" cy="538.91" fill="rgba(232, 232, 232, 0.59)"></circle><circle r="5" cx="232.24" cy="336.76" fill="rgba(232, 232, 232, 0.59)"></circle><circle r="5" cx="231.19" cy="405.35" fill="rgba(232, 232, 232, 0.59)"></circle><circle r="5" cx="224.29" cy="468.69" fill="rgba(232, 232, 232, 0.59)"></circle><circle r="5" cx="215.83" cy="525.78" fill="rgba(232, 232, 232, 0.59)"></circle><circle r="5" cx="274.42" cy="410.23" fill="rgba(232, 232, 232, 0.59)"></circle><circle r="5" cx="265.96" cy="471.61" fill="rgba(232, 232, 232, 0.59)"></circle><circle r="5" cx="292.39" cy="526.39" fill="rgba(232, 232, 232, 0.59)"></circle><circle r="5" cx="335.53" cy="471.83" fill="rgba(232, 232, 232, 0.59)"></circle><circle r="5" cx="340.28" cy="543.69" fill="rgba(232, 232, 232, 0.59)"></circle><circle r="5" cx="404.7" cy="-27.81" fill="rgba(232, 232, 232, 0.59)"></circle><circle r="5" cx="401.69" cy="108.41" fill="rgba(232, 232, 232, 0.59)"></circle><circle r="5" cx="405.38" cy="165.48" fill="rgba(232, 232, 232, 0.59)"></circle><circle r="5" cx="407.06" cy="295.56" fill="rgba(232, 232, 232, 0.59)"></circle><circle r="5" cx="414.18" cy="344.56" fill="rgba(232, 232, 232, 0.59)"></circle><circle r="5" cx="399.71" cy="397.34" fill="rgba(232, 232, 232, 0.59)"></circle><circle r="5" cx="417.88" cy="459.56" fill="rgba(232, 232, 232, 0.59)"></circle><circle r="5" cx="394.47" cy="517.09" fill="rgba(232, 232, 232, 0.59)"></circle><circle r="5" cx="477.93" cy="-19.72" fill="rgba(232, 232, 232, 0.59)"></circle><circle r="5" cx="457.52" cy="103.18" fill="rgba(232, 232, 232, 0.59)"></circle><circle r="5" cx="480.65" cy="229.14" fill="rgba(232, 232, 232, 0.59)"></circle><circle r="5" cx="458.98" cy="271.57" fill="rgba(232, 232, 232, 0.59)"></circle><circle r="5" cx="476.61" cy="415.26" fill="rgba(232, 232, 232, 0.59)"></circle><circle r="5" cx="520.11" cy="-21.75" fill="rgba(232, 232, 232, 0.59)"></circle><circle r="5" cx="537.71" cy="41.21" fill="rgba(232, 232, 232, 0.59)"></circle><circle r="5" cx="527.83" cy="80.43" fill="rgba(232, 232, 232, 0.59)"></circle><circle r="5" cx="542.13" cy="143.22" fill="rgba(232, 232, 232, 0.59)"></circle><circle r="5" cx="532.07" cy="225.43" fill="rgba(232, 232, 232, 0.59)"></circle><circle r="5" cx="541.89" cy="341.42" fill="rgba(232, 232, 232, 0.59)"></circle><circle r="5" cx="544.03" cy="396.39" fill="rgba(232, 232, 232, 0.59)"></circle><circle r="5" cx="542.58" cy="521.79" fill="rgba(232, 232, 232, 0.59)"></circle></g><defs><mask id="SvgjsMask1046"><rect width="500" height="500" fill="#ffffff"></rect></mask><radialGradient id="SvgjsRadialGradient1047"><stop stop-color="#ffffff" offset="0.1"></stop><stop stop-color="rgba(0, 0, 0, 0.18)" offset="0.2"></stop><stop stop-color="rgba(0, 0, 0, 0)" offset="1"></stop></radialGradient></defs></svg>