<svg xmlns="http://www.w3.org/2000/svg" version="1.1" xmlns:xlink="http://www.w3.org/1999/xlink" xmlns:svgjs="http://svgjs.com/svgjs" width="500" height="500" preserveAspectRatio="none" viewBox="0 0 500 500"><g mask="url(&quot;#SvgjsMask1088&quot;)" fill="none"><path d="M -315.73123159203067,335 C -282.33,317.6 -215.53,264.8 -148.73123159203067,248 C -81.93,231.2 -48.53,275.8 18.268768407969333,251 C 85.07,226.2 118.47,93.4 185.26876840796933,124 C 252.07,154.6 289.32,386.6 352.26876840796933,404 C 415.22,421.4 470.45,249.6 500,211" stroke="rgba(37, 77, 47, 0.09)" stroke-width="2"></path><path d="M -192.55830110435775,123 C -159.16,150.2 -92.36,242.2 -25.558301104357746,259 C 41.24,275.8 74.64,176.8 141.44169889564225,207 C 208.24,237.2 241.64,413.2 308.4416988956423,410 C 375.24,406.8 437.13,201 475.4416988956423,191 C 513.75,181 495.09,326.2 500,360" stroke="rgba(177, 162, 40, 0.08)" stroke-width="2"></path><path d="M -145.3773868591892,199 C -111.98,214.2 -45.18,297.6 21.622613140810813,275 C 88.42,252.4 121.82,63.6 188.6226131408108,86 C 255.42,108.4 288.82,362 355.6226131408108,387 C 422.42,412 493.75,205.2 522.6226131408108,211 C 551.5,216.8 504.52,375 500,416" stroke="rgba(177, 162, 40, 0.08)" stroke-width="2"></path><path d="M -121.98107344649867,248 C -88.58,275.2 -21.78,419.6 45.01892655350133,384 C 111.82,348.4 145.22,83.6 212.01892655350133,70 C 278.82,56.4 312.22,305.8 379.01892655350133,316 C 445.82,326.2 521.82,109.4 546.0189265535014,121 C 570.22,132.6 509.2,323.4 500,374" stroke="rgba(37, 77, 47, 0.09)" stroke-width="2"></path><path d="M -86.22037254590931,316 C -52.82,281.6 13.98,124.4 80.77962745409069,144 C 147.58,163.6 180.98,412.4 247.7796274540907,414 C 314.58,415.6 347.98,152.2 414.7796274540907,152 C 481.58,151.8 564.74,429 581.7796274540907,413 C 598.82,397 516.36,140.2 500,72" stroke="rgba(177, 162, 40, 0.08)" stroke-width="2"></path></g><defs><mask id="SvgjsMask1088"><rect width="500" height="500" fill="#ffffff"></rect></mask></defs></svg>